HIERARCHY
ROOT joint_Root
{
	OFFSET 0.0 0.0 0.0
	CHANNELS 6 Xposition Yposition Zposition Zrotation Xrotation Yrotation 
	JOINT Hips
	{
		OFFSET 4.5925 91.4895 -427.239
		CHANNELS 6 Xposition Yposition Zposition Zrotation Xrotation Yrotation 
		JOINT Spine
		{
			OFFSET 15.7357 0.0 0.0
			CHANNELS 6 Xposition Yposition Zposition Zrotation Xrotation Yrotation 
			JOINT Chest
			{
				OFFSET 8.98455 -0.406207 0.0
				CHANNELS 6 Xposition Yposition Zposition Zrotation Xrotation Yrotation 
				JOINT Neck
				{
					OFFSET 16.3773 0.0 0.0
					CHANNELS 6 Xposition Yposition Zposition Zrotation Xrotation Yrotation 
					JOINT Head
					{
						OFFSET 6.45672 0.0 0.0
						CHANNELS 6 Xposition Yposition Zposition Zrotation Xrotation Yrotation 
						End Site
						{
							OFFSET 0.0 0.0 0.0
						}
					}
				}
				JOINT Shoulder_L
				{
					OFFSET 12.9942 -0.242716 4.98039
					CHANNELS 6 Xposition Yposition Zposition Zrotation Xrotation Yrotation 
					JOINT UpperArm_L
					{
						OFFSET 5.34809 0.0 0.0
						CHANNELS 6 Xposition Yposition Zposition Zrotation Xrotation Yrotation 
						JOINT LowerArm_L
						{
							OFFSET 24.3286 1.87007e-05 0.0
							CHANNELS 6 Xposition Yposition Zposition Zrotation Xrotation Yrotation 
							JOINT Hand_L
							{
								OFFSET 22.2916 0.0 0.0
								CHANNELS 6 Xposition Yposition Zposition Zrotation Xrotation Yrotation 
								End Site
								{
									OFFSET 0.0 0.0 0.0
								}
							}
						}
					}
				}
				JOINT Shoulder_R
				{
					OFFSET 12.9945 -0.242716 -4.98039
					CHANNELS 6 Xposition Yposition Zposition Zrotation Xrotation Yrotation 
					JOINT UpperArm_R
					{
						OFFSET -5.34813 0.0 0.0
						CHANNELS 6 Xposition Yposition Zposition Zrotation Xrotation Yrotation 
						JOINT LowerArm_R
						{
							OFFSET -24.3289 0.000322201 0.0
							CHANNELS 6 Xposition Yposition Zposition Zrotation Xrotation Yrotation 
							JOINT Hand_R
							{
								OFFSET -22.2915 -0.000108084 0.0
								CHANNELS 6 Xposition Yposition Zposition Zrotation Xrotation Yrotation 
								End Site
								{
									OFFSET 0.0 0.0 0.0
								}
							}
						}
					}
				}
			}
		}
		JOINT UpperLeg_L
		{
			OFFSET -2.19248 -6.46944 0.0
			CHANNELS 6 Xposition Yposition Zposition Zrotation Xrotation Yrotation 
			JOINT LowerLeg_L
			{
				OFFSET 39.0811 0.0 -1.23785e-05
				CHANNELS 6 Xposition Yposition Zposition Zrotation Xrotation Yrotation 
				JOINT Foot_L
				{
					OFFSET 40.9854 0.0 -1.26872e-05
					CHANNELS 6 Xposition Yposition Zposition Zrotation Xrotation Yrotation 
					JOINT Toes_L
					{
						OFFSET 11.7543 0.0 0.0
						CHANNELS 6 Xposition Yposition Zposition Zrotation Xrotation Yrotation 
						End Site
						{
							OFFSET 0.0 0.0 0.0
						}
					}
				}
			}
		}
		JOINT UpperLeg_R
		{
			OFFSET -2.19251 6.46944 0.0
			CHANNELS 6 Xposition Yposition Zposition Zrotation Xrotation Yrotation 
			JOINT LowerLeg_R
			{
				OFFSET -39.0811 -0.00228153 -0.0401928
				CHANNELS 6 Xposition Yposition Zposition Zrotation Xrotation Yrotation 
				JOINT Foot_R
				{
					OFFSET -40.9854 0.0 0.0
					CHANNELS 6 Xposition Yposition Zposition Zrotation Xrotation Yrotation 
					JOINT Toes_R
					{
						OFFSET -11.7543 0.0 0.0
						CHANNELS 6 Xposition Yposition Zposition Zrotation Xrotation Yrotation 
						End Site
						{
							OFFSET 0.0 0.0 0.0
						}
					}
				}
			}
		}
	}
}
MOTION
Frames:	4
Frame Time:	0.0333333
0.000000 0.000000 0.000000 0.000000 0.000000 -0.000000 -7.743350 90.295800 -2.086910 83.249000 -1.627570 8.234690 15.735700 0.000005 -0.000001 81.081900 82.447400 -86.298000 8.984550 -0.406207 -0.000000 7.077210 -2.302960 -10.279200 16.377300 -0.000001 -0.000001 8.848290 0.877778 -2.393520 6.456720 -0.000001 -0.000000 3.168330 2.464180 2.453470 12.994200 -0.242716 4.980390 -91.459900 3.785490 -68.892500 5.348090 -0.000007 -0.000001 -60.691900 3.738410 -7.099320 24.328600 0.000019 0.000005 8.332550 13.629000 -31.863900 22.291600 -0.000001 0.000005 13.530100 5.246420 1.527100 12.994500 -0.242716 -4.980390 90.490100 -1.701570 -73.934400 -5.348130 -0.000001 -0.000004 -29.512400 -48.557900 -39.255400 -24.328900 0.000322 -0.000009 -16.345000 -33.092500 -28.240200 -22.291500 -0.000108 -0.000004 24.155500 5.222990 2.119790 -2.192480 -6.469440 -0.000000 -162.254000 -14.020300 -4.555980 39.081100 -0.000007 -0.000012 -0.218018 0.320329 34.239800 40.985400 -0.000006 -0.000013 -4.169180 10.830700 -69.584300 11.754300 -0.000000 0.000003 -0.000235 -0.002122 -16.657200 -2.192510 6.469440 -0.000001 -174.923000 24.185700 179.410000 -39.081100 -0.002282 -0.040193 -0.040832 0.080220 28.819200 -40.985400 0.000008 0.000006 9.810970 13.493700 -71.582900 -11.754300 -0.000006 -0.000006 -0.001350 -0.020263 -17.397100
0.000000 0.000000 0.000000 0.000000 0.000000 -0.000000 -7.781320 90.258000 -2.140860 83.292400 -1.565650 8.278180 15.735700 0.000005 -0.000001 81.661200 82.436100 -86.988200 8.984550 -0.406207 -0.000000 7.127420 -2.157400 -10.508800 16.377300 -0.000001 -0.000001 7.956130 1.337470 -3.373640 6.456720 -0.000001 -0.000000 3.003710 2.799740 2.155480 12.994200 -0.242716 4.980390 -91.410600 3.681310 -69.017300 5.348090 -0.000007 -0.000001 -61.309800 3.679610 -7.169320 24.328600 0.000019 0.000005 7.802020 13.852600 -29.781800 22.291600 -0.000001 0.000005 14.461500 5.237260 1.766430 12.994500 -0.242716 -4.980390 89.976600 0.081441 -74.016400 -5.348130 -0.000001 -0.000004 -35.724600 -45.993200 -39.000700 -24.328900 0.000322 -0.000009 -14.162000 -29.828800 -26.897500 -22.291500 -0.000108 -0.000004 24.649700 5.116720 4.731860 -2.192480 -6.469440 -0.000000 -162.184000 -14.382200 -4.640630 39.081100 -0.000007 -0.000012 -0.210249 0.307059 34.400500 40.985400 -0.000006 -0.000013 -4.073990 11.224800 -69.571000 11.754300 -0.000000 0.000003 -0.000240 -0.002156 -16.658500 -2.192510 6.469440 -0.000001 -174.984000 24.311700 179.310000 -39.081100 -0.002282 -0.040193 -0.050118 0.096190 29.047000 -40.985400 0.000008 0.000006 9.724380 13.574300 -71.642900 -11.754300 -0.000006 -0.000006 -0.000987 -0.015219 -17.192100
0.000000 0.000000 0.000000 0.000000 0.000000 -0.000000 -7.744700 90.236800 -2.167440 83.268100 -1.624860 8.043820 15.735700 0.000005 -0.000001 80.693600 82.512500 -85.929100 8.984550 -0.406207 -0.000000 6.929090 -2.376100 -10.316500 16.377300 -0.000001 -0.000001 7.417550 1.428040 -3.329690 6.456720 -0.000001 -0.000000 2.979790 3.174820 2.227890 12.994200 -0.242716 4.980390 -91.304600 3.449850 -69.270800 5.348090 -0.000007 -0.000001 -62.539200 2.533080 -6.271420 24.328600 0.000019 0.000005 7.206720 13.845600 -27.850800 22.291600 -0.000001 0.000005 14.376200 5.215870 2.318280 12.994500 -0.242716 -4.980390 89.847200 0.517652 -73.549900 -5.348130 -0.000001 -0.000004 -40.244400 -44.327300 -41.999700 -24.328900 0.000322 -0.000009 -13.116300 -27.929500 -26.447200 -22.291500 -0.000108 -0.000004 23.594200 4.993960 7.448160 -2.192480 -6.469440 -0.000000 -162.187000 -14.706600 -4.938100 39.081100 -0.000007 -0.000012 -0.206653 0.300100 34.552200 40.985400 -0.000006 -0.000013 -3.981930 11.413600 -69.619400 11.754300 -0.000000 0.000003 -0.000227 -0.002063 -16.655100 -2.192510 6.469440 -0.000001 -174.795000 23.940400 178.920000 -39.081100 -0.002282 -0.040193 -0.058996 0.111525 29.188400 -40.985400 0.000008 0.000006 9.552780 13.284400 -71.596800 -11.754300 -0.000006 -0.000006 -0.001070 -0.016391 -17.239700
0.000000 0.000000 0.000000 0.000000 0.000000 -0.000000 -7.564710 90.263600 -2.154120 83.348500 -2.203480 7.994590 15.735700 0.000005 -0.000001 79.644500 82.565700 -84.758300 8.984550 -0.406207 -0.000000 6.769040 -2.620280 -10.062200 16.377300 -0.000001 -0.000001 7.424670 1.161460 -2.240460 6.456720 -0.000001 -0.000000 3.143910 3.197220 2.587700 12.994200 -0.242716 4.980390 -91.300400 3.429440 -69.220100 5.348090 -0.000007 -0.000001 -62.972000 2.594530 -5.532200 24.328600 0.000019 0.000005 6.356970 13.565400 -25.407200 22.291600 -0.000001 0.000005 14.142100 5.198800 2.749160 12.994500 -0.242716 -4.980390 90.037100 -0.122241 -73.136500 -5.348130 -0.000001 -0.000004 -45.231500 -45.071000 -49.546300 -24.328900 0.000322 -0.000009 -13.983400 -28.653100 -27.441600 -22.291500 -0.000108 -0.000004 23.506400 4.910110 9.178470 -2.192480 -6.469440 -0.000000 -162.323000 -15.074700 -4.712800 39.081100 -0.000007 -0.000012 -0.207092 0.301700 34.466800 40.985400 -0.000006 -0.000013 -3.924170 11.159300 -69.689500 11.754300 -0.000000 0.000003 -0.000236 -0.002131 -16.657500 -2.192510 6.469440 -0.000001 -174.887000 23.282500 178.867000 -39.081100 -0.002282 -0.040193 -0.055566 0.105354 29.195700 -40.985400 0.000008 0.000006 9.511790 13.267800 -71.532500 -11.754300 -0.000006 -0.000006 -0.000997 -0.015361 -17.197800
